PathFileType	4	(X/Y/Z)	C:\Users\Basilio\Documents\Thesis Gigler\squatting_fais\c3dfiles\047\SJ_pre4\markers_experimental.trc
DataRate	CameraRate	NumFrames	NumMarkers	Units	OrigDataRate	OrigDataStartFrame	OrigNumFrames
200.000000	200.000000	4	61	mm	200.000000	392	1569
Frame#	Time	FHD			LBHD			RBHD			C7			T10			CLAV			LSHO			LUUPA			LMUPA			LDUPA			LLEP			LMEP			LRAD			LUL			LRFIN			RSHO			RUPA1			RMUPA			RDUPA			RLEP			RMEP			RRAD			RUL			RUFIN			LASI			RASI			USACR			LSACR			RSACR			LTHI1			LTHI2			LTHI3			LTHI4			LLFC			LMFC			LTIB1			LTIB2			LTIB3			LTIB4			LLMAL			LMMAL			LMT1			LMT2			LMT5			RTHI			RTHI2			RTHI3			RTHI4			RLFC			RMFC			RTIB1			RTIB2			RTIB3			RTIB4			RLMAL			RMMAL			RHEE			RMT1			RMT2			RMT5			*60			
		X1	Y1	Z1	X2	Y2	Z2	X3	Y3	Z3	X4	Y4	Z4	X5	Y5	Z5	X6	Y6	Z6	X7	Y7	Z7	X8	Y8	Z8	X9	Y9	Z9	X10	Y10	Z10	X11	Y11	Z11	X12	Y12	Z12	X13	Y13	Z13	X14	Y14	Z14	X15	Y15	Z15	X16	Y16	Z16	X17	Y17	Z17	X18	Y18	Z18	X19	Y19	Z19	X20	Y20	Z20	X21	Y21	Z21	X22	Y22	Z22	X23	Y23	Z23	X24	Y24	Z24	X25	Y25	Z25	X26	Y26	Z26	X27	Y27	Z27	X28	Y28	Z28	X29	Y29	Z29	X30	Y30	Z30	X31	Y31	Z31	X32	Y32	Z32	X33	Y33	Z33	X34	Y34	Z34	X35	Y35	Z35	X36	Y36	Z36	X37	Y37	Z37	X38	Y38	Z38	X39	Y39	Z39	X40	Y40	Z40	X41	Y41	Z41	X42	Y42	Z42	X43	Y43	Z43	X44	Y44	Z44	X45	Y45	Z45	X46	Y46	Z46	X47	Y47	Z47	X48	Y48	Z48	X49	Y49	Z49	X50	Y50	Z50	X51	Y51	Z51	X52	Y52	Z52	X53	Y53	Z53	X54	Y54	Z54	X55	Y55	Z55	X56	Y56	Z56	X57	Y57	Z57	X58	Y58	Z58	X59	Y59	Z59	X60	Y60	Z60	X61	Y61	Z61	

393	1.96	-72.84606933593751	1672.761474609375	-887.133728027344	-240.6357574462891	1674.95458984375	-959.927429199219	-256.3497009277344	1678.320678710938	-811.888854980469	-327.2472229003907	1501.56298828125	-884.7672119140627	-391.2515869140626	1187.8828125	-881.557067871094	-174.5581970214844	1436.150268554688	-891.1247558593752	-250.4367980957032	1470.735473632813	-1064.194580078125	-363.2741699218751	1360.074829101563	-1185.525512695313	-324.8006286621094	1334.959350585938	-1208.768432617188	-374.6790771484376	1307.337890625	-1230.005737304688	-364.1452026367188	1243.142456054688	-1266.545166015625	-423.0831604003907	1215.128540039063	-1192.420043945313	-276.1496582031251	1076.816772460938	-1091.730224609375	-235.6297454833985	1045.549560546875	-1150.72021484375	-220.4301452636719	1066.322143554688	-1050.51611328125	-243.4951324462891	1485.053588867188	-720.7048950195314	-362.8435974121094	1375.896118164063	-588.0277099609376	-329.7239685058594	1345.630249023438	-567.0063476562501	-380.0402832031251	1322.83056640625	-544.4660644531251	-372.7010498046876	1254.913452148438	-511.0761108398439	-433.1057128906251	1227.2900390625	-576.1677856445314	-261.5853576660157	1101.515625	-681.6737060546876	-234.7162780761719	1066.114868164063	-621.6325073242189	-208.8736877441407	1073.84765625	-719.5275878906251	-229.7547302246094	951.2409667968752	-999.9138793945315	-222.8319549560547	956.5538330078127	-769.5744628906252	-404.2618713378907	1041.878295898438	-884.1267700195315	-413.267059326172	1011.089721679688	-912.6177978515627	-408.9586486816407	1010.380859375	-854.9158935546877	-340.6190185546876	813.8194580078127	-1082.793701171875	-307.2804870605469	738.2073974609376	-1098.959350585938	-258.1427307128907	740.0311889648439	-1091.696655273438	-335.4028015136719	683.9319458007814	-1099.0634765625	-353.3032836914063	508.5768432617189	-1087.127075195313	-295.5640258789063	479.1100158691407	-981.557800292969	-307.2176818847657	310.7048339843751	-1044.372680664063	-338.8070373535157	278.8730163574219	-1120.231567382813	-308.6360168457032	269.8602294921876	-1085.31298828125	-318.8101806640626	188.1020660400391	-1068.325805664063	-378.2268981933594	96.51056671142581	-1123.81982421875	-339.5350341796876	100.739501953125	-1041.47705078125	-217.6817626953126	63.89131164550783	-1096.205200195313	-228.3830718994141	64.08665466308595	-1139.428344726563	-275.9213562011719	43.9621925354004	-1177.458984375	-337.1888122558594	784.8216552734377	-676.3158569335939	-302.0910644531251	728.9736938476564	-666.1610717773439	-269.4899597167969	730.4372558593751	-669.2591552734376	-331.0425109863282	649.9661865234376	-674.0988769531251	-330.9775695800782	499.5426025390626	-685.9318237304689	-281.9873352050782	487.4582824707032	-797.962097167969	-298.2574157714844	369.9945068359376	-690.3441162109376	-369.3666687011719	291.1242065429688	-663.5603027343751	-322.9568481445313	289.8157653808594	-669.1236572265626	-307.8102416992188	240.1661682128907	-698.8717041015626	-377.8118896484376	90.95050048828126	-680.5375976562501	-332.1468505859376	105.1396636962891	-761.7635498046876	-419.9371032714845	51.50822067260744	-741.5018310546876	-209.225570678711	56.06030654907228	-709.5115356445314	-218.8282165527344	59.2284507751465	-665.0866088867189	-275.3003845214844	30.78506469726563	-618.8064575195314	nan	nan	nan	
394	1.965	-70.82708740234376	1672.262451171875	-887.0604248046877	-238.6172485351563	1674.8984375	-959.9356079101565	-254.4950256347657	1678.122680664063	-811.5339355468752	-325.2126159667969	1501.467407226563	-884.8538818359377	-391.1939697265626	1188.569946289063	-881.2747802734377	-173.3673553466797	1435.057250976563	-890.789001464844	-248.2728271484376	1470.404418945313	-1064.602172851563	-362.3139953613282	1360.09912109375	-1185.415161132813	-323.8697814941407	1334.962158203125	-1208.781127929688	-374.0678405761719	1307.434204101563	-1229.875122070313	-364.0142211914063	1243.225463867188	-1266.41748046875	-423.072235107422	1215.787353515625	-1192.334106445313	-277.0954895019532	1076.6083984375	-1091.536010742188	-236.5229949951172	1044.800170898438	-1150.243774414063	-221.2516479492188	1065.931884765625	-1050.390502929688	-242.1796875000001	1484.607299804688	-720.4109497070314	-361.8824462890626	1376.393432617188	-587.7797241210939	-328.4244384765626	1345.7880859375	-566.9849243164064	-379.3409118652344	1323.25537109375	-544.2433471679689	-372.2031860351563	1255.37255859375	-510.9378662109376	-432.644500732422	1227.977783203125	-576.0242309570314	-262.3035583496094	1101.250366210938	-681.4946899414064	-235.156723022461	1065.869506835938	-621.5834350585939	-209.5697174072266	1073.31005859375	-719.4852905273439	-231.1159362792969	950.9105224609377	-999.5968017578127	-224.1662902832032	955.9693603515627	-768.5863037109377	-405.2139892578126	1042.631469726563	-883.8852539062502	-414.6000976562501	1011.8408203125	-912.380065917969	-409.9894409179689	1011.104736328125	-854.8040771484377	-341.7812194824219	813.7293701171877	-1082.904052734375	-307.8219604492188	738.3389282226564	-1099.312744140625	-258.6809997558594	740.3941650390626	-1091.778442382813	-335.5106811523438	683.8889770507814	-1099.69921875	-352.2242736816407	508.525115966797	-1087.915405273438	-294.5657043457032	479.094696044922	-982.5210571289065	-306.4641418457032	310.5408630371094	-1044.62060546875	-338.0327148437501	278.7175292968751	-1120.46728515625	-308.3703002929688	269.4839782714844	-1085.279418945313	-318.1107788085938	188.1377258300782	-1068.616088867188	-378.1308288574219	96.54216003417972	-1123.783813476563	-339.3666687011719	100.7559661865235	-1041.440551757813	-217.6797943115235	63.83316802978517	-1096.066772460938	-228.2975311279297	64.19639587402345	-1139.321166992188	-275.7919921875001	44.02926635742188	-1177.374145507813	-338.0898437500001	784.6646728515627	-675.7088623046876	-302.9457397460938	728.8961791992189	-665.1663818359376	-269.9996948242188	730.4733886718751	-668.7591552734376	-331.0269470214844	649.8863525390626	-673.6490478515626	-329.5308837890626	499.2304687500001	-685.2423706054689	-280.6687622070313	487.1670532226564	-796.9914550781252	-296.9993591308594	369.6371765136719	-689.5989379882814	-368.4125671386719	291.3299865722657	-663.3295898437501	-322.0277404785157	289.6515808105469	-668.6481933593751	-307.0941772460938	239.9427032470704	-698.4575195312501	-377.7625427246094	90.96033477783205	-680.4761962890626	-332.1323852539063	105.1677551269532	-761.6305541992189	-419.9424743652345	51.34477615356447	-741.4740600585939	-209.1756134033204	56.06962966918947	-709.5717773437501	-218.8748168945313	59.00154113769533	-665.2857055664064	-275.2574462890626	30.80722045898438	-618.8350830078126	nan	nan	nan	
395	1.97	-68.69990539550783	1671.40185546875	-887.0588378906252	-236.4900054931641	1674.828857421875	-959.9109497070315	-252.1393737792969	1678.260986328125	-811.693786621094	-323.2585144042969	1501.735473632813	-884.924255371094	-391.0943603515626	1189.001586914063	-881.1411132812502	-171.6620635986328	1434.444946289063	-891.1770019531252	-246.8709564208985	1469.837646484375	-1064.3935546875	-361.3535766601563	1360.447265625	-1185.249755859375	-322.8632812500001	1334.835571289063	-1208.753173828125	-373.4960327148438	1307.792846679688	-1229.760864257813	-363.8699035644532	1243.339965820313	-1266.247680664063	-423.0199584960939	1216.213745117188	-1192.20751953125	-277.7942810058594	1076.322509765625	-1091.297607421875	-237.881088256836	1044.129638671875	-1149.668701171875	-222.4600982666016	1065.229614257813	-1049.71826171875	-240.3485870361329	1484.320678710938	-720.6623535156251	-360.5944519042969	1376.676391601563	-587.8802490234376	-327.4123229980469	1346.032104492188	-566.9626464843751	-378.1493530273438	1323.837768554688	-544.3909301757814	-371.6829833984376	1255.823852539063	-510.9469604492189	-432.1882934570314	1228.763061523438	-575.9346313476564	-262.8403930664063	1101.068969726563	-681.3818359375001	-235.6844940185547	1065.5126953125	-621.4552001953126	-210.3999786376954	1072.817504882813	-719.3842163085939	-232.8893737792969	950.5131835937502	-999.1721191406252	-225.8981933593751	955.6708984375002	-769.8724365234377	-406.3428649902345	1043.393798828125	-883.6314086914065	-415.8666992187501	1012.52001953125	-912.1132812500002	-411.217254638672	1011.989868164063	-854.6267089843752	-342.8685913085938	813.4027099609377	-1083.219970703125	-308.3887329101563	738.4317016601564	-1099.630737304688	-259.0639953613282	740.7816162109376	-1091.968627929688	-335.6231994628907	683.8723754882814	-1100.333740234375	-350.9167785644532	508.3454895019532	-1088.865844726563	-293.5687866210938	479.2764282226564	-983.241394042969	-306.1819152832032	310.2893676757813	-1044.921997070313	-337.3048706054688	278.6121215820313	-1120.768432617188	-307.5153198242188	269.2958374023438	-1085.62255859375	-317.4128112792969	187.9615020751953	-1068.864624023438	-377.9900512695313	96.55622863769534	-1123.838989257813	-339.3614807128907	100.7534332275391	-1041.333862304688	-216.9456329345704	65.0725784301758	-1096.872314453125	-228.2552642822266	64.36052703857423	-1139.206787109375	-275.8397827148438	44.11808395385743	-1177.257080078125	-339.0658569335938	784.3237915039065	-675.0832519531251	-303.7768554687501	728.7584228515626	-664.0722045898439	-270.6600646972657	730.4561767578126	-668.0944213867189	-331.1140441894532	649.5076904296876	-672.8842773437501	-328.4558410644532	499.248504638672	-684.3151245117189	-279.0084533691407	487.1266479492189	-795.887390136719	-295.8714294433594	369.4268493652344	-688.8707885742189	-367.8161926269532	290.9749145507813	-662.5886230468751	-321.2410278320313	289.4361877441407	-668.1664428710939	-306.4239501953126	239.8537750244141	-698.2006225585939	-377.6976623535157	91.05643463134767	-680.2748413085939	-332.0303955078126	105.2322006225586	-761.5734252929689	-419.9272460937501	51.50960922241212	-741.4662475585939	-209.104965209961	56.05531311035158	-709.6109619140626	-218.8443756103516	59.08845520019533	-665.3157958984376	-275.1944580078126	30.82945823669434	-618.8781738281251	nan	nan	nan	
396	1.975	-67.02402496337892	1670.130126953125	-885.5393676757815	-234.3206939697266	1674.755859375	-959.7544555664065	-249.9409942626954	1678.160034179688	-811.279479980469	-321.4981994628907	1502.036743164063	-884.8581542968752	-391.0039978027345	1189.772827148438	-880.7769775390627	-170.3905792236328	1433.6298828125	-891.111022949219	-244.9195861816407	1469.236328125	-1064.52734375	-360.3977966308594	1360.609375	-1185.207397460938	-322.0077514648438	1334.82275390625	-1208.646118164063	-372.8142395019532	1307.902954101563	-1229.707763671875	-363.5733947753907	1243.493408203125	-1266.172973632813	-423.0178527832032	1216.706176757813	-1192.069580078125	-279.0316467285157	1075.900146484375	-1090.842041015625	-239.201889038086	1043.390625	-1149.136352539063	-223.3367767333985	1064.612060546875	-1049.4970703125	-238.4647216796876	1484.01904296875	-720.8265991210939	-359.4526367187501	1377.015502929688	-587.8037719726564	-326.3544006347657	1346.218505859375	-567.0916137695314	-377.1813659667969	1324.410766601563	-544.2294311523439	-371.0394287109376	1256.144409179688	-510.8297119140626	-431.7940368652345	1229.644897460938	-575.7631835937501	-262.8838500976563	1101.02392578125	-681.5341186523439	-236.3114776611329	1065.1845703125	-621.4368286132814	-210.8324584960938	1072.391845703125	-719.2778320312501	-235.0216217041016	950.009704589844	-998.781921386719	-227.3422241210938	955.3802490234377	-770.0129394531252	-407.448699951172	1044.066772460938	-883.2338867187502	-417.1329040527345	1013.337036132813	-911.8281250000002	-412.3560791015626	1012.890380859375	-854.385437011719	-344.0556640625001	813.2552490234377	-1083.441528320313	-308.8681335449219	738.4815673828126	-1100.105834960938	-259.6737365722657	741.1635131835939	-1092.114135742188	-335.7660522460938	683.8171386718751	-1100.859130859375	-349.5134277343751	508.2921752929689	-1089.966796875	-292.4211120605469	479.302947998047	-984.1103515625002	-304.6523132324219	310.4229125976563	-1045.5986328125	-335.9892578125001	278.7219238281251	-1121.248168945313	-306.6814270019532	268.4590759277344	-1086.051635742188	-317.2638854980469	187.8749084472657	-1068.841430664063	-377.8352050781251	96.60926055908206	-1123.862060546875	-339.2347717285157	100.7790298461914	-1041.318359375	-216.9120788574219	64.93930816650392	-1096.624755859375	-228.2444000244141	64.3801727294922	-1139.134887695313	-275.7382202148438	44.16110610961915	-1177.159912109375	-340.0819396972657	783.9470825195315	-674.3981933593751	-304.1235961914063	728.8098754882814	-664.0322875976564	-271.4447937011719	730.5957031250001	-666.9945068359376	-331.1181945800782	649.2180786132814	-672.1998901367189	-327.2304687500001	498.9461059570314	-683.3934326171876	-277.5430297851563	487.2703247070314	-795.1489868164065	-294.6226806640626	369.1117248535157	-688.1829833984376	-366.6958312988282	290.9770202636719	-662.2138061523439	-320.5276489257813	289.3544921875001	-667.4033203125001	-305.6885681152344	239.5918273925782	-697.8052978515626	-377.6596374511719	91.04744720458986	-680.2976074218751	-331.9087524414063	105.3089447021485	-761.4646606445314	-419.9246520996095	51.49671936035158	-741.4860839843751	-209.0836181640626	56.21172332763673	-709.6757202148439	-218.8381347656251	59.11874008178712	-665.2630004882814	-275.2327270507813	30.89585876464844	-618.8881225585939	nan	nan	nan	
